{"title":"Hoodwinked.Too.Hood.Vs.Evil.2011.3D.DVDRip.XviD-EXViD.sharedump.","uid":6751566,"size":742321685,"categoryP":"video","categoryS":"movies","magnet":"?xt=urn:btih:f27c0210dc003edde36bf8460e4ebb856b4bb0de&amp;dn=Hoodwinked.Too.Hood.Vs.Evil.2011.3D.DVDRip.XviD-EXViD.sharedump.&amp;tr=udp%3A%2F%2Ftracker.openbittorrent.com%3A80&amp;tr=udp%3A%2F%2Fopen.demonii.com%3A1337&amp;tr=udp%3A%2F%2Ftracker.coppersurfer.tk%3A6969&amp;tr=udp%3A%2F%2Fexodus.desync.com%3A6969","seeders":0,"leechers":0,"uploader":"Sunblock.","files":7,"time":1318897043,"description":"sharedump.org\n\n\nHoodwinked.Too.Hood.Vs.Evil.2011.3D.DVDRip.XviD-EXViD \n &lt;a href=&quot;\nhttp://www.imdb.com/title/tt0844993/&quot; rel=&quot;nofollow&quot; target=&quot;_NEW&quot;&gt;\nhttp://www.imdb.com/title/tt0844993/&lt;/a&gt;\nSubtitles: NL\nDate: 2011.10\n\nDirector: Mike Disa\n\nGenres: Animation | Comedy | Family\n\nPlot:\nHood vs. Evil will find a teen such as Red Riding Hood who will be training in a distant land\nwith a mysterious, covert group called the Sister Hoods. When Red and the Wolf get called upon\nby Nick Flippers the head of the Happily Ever After Agency over to investigate the disappearance\nof Hansel and Gretel.\n\nCast:\nGlenn Close \t ... \tGranny Puckett (voice) \nHayden Panettiere \t ... \tRed Riding Hood (voice) \nCheech Marin \t ... \tMad Hog (voice) \nPatrick Warburton \t ... \tThe Big Bad Wolf (voice) \nJoan Cusack \t ... \tVerushka the Witch (voice) \nBill Hader \t ... \tHansel (voice) \nDavid Ogden Stiers \t ... \tNicky Flippers (voice) \nAmy Poehler \t ... \tGretel (voice) \nCory Edwards \t ... \tTwitchy (voice) \nMartin Short \t ... \tKirk the Woodsman (voice) \nBrad Garrett \t ... \tThe Giant (voice) \nAndy Dick \t ... \tBoingo the Bunny (voice) \nDavid Alan Grier \t ... \tMoss the Troll (voice) \nTommy Chong \t ... \tStone (voice) \nPhil LaMarr \t ... \tWood / Ernesto (voice)\n\nStats:\nFormat                           : AVI\nFormat/Info                      : Audio Video Interleave\nFile size                        : 699 MiB\nDuration                         : 1h 22mn\nOverall bit rate                 : 1 180 Kbps\nWriting application              : VirtualDubMod 1.5.10.2 (build 2540/release)\nWriting library                  : VirtualDubMod build 2540/release\n\nVideo\nID                               : 0\nFormat                           : MPEG-4 Visual\nFormat profile                   : Advanced Simple@L5\nFormat settings, BVOP            : Yes\nFormat settings, QPel            : No\nFormat settings, GMC             : No warppoints\nFormat settings, Matrix          : Default (H.263)\nMuxing mode                      : Packed bitstream\nCodec ID                         : XVID\nCodec ID/Hint                    : XviD\nDuration                         : 1h 22mn\nBit rate                         : 1 045 Kbps\nWidth                            : 624 pixels\nHeight                           : 352 pixels\nDisplay aspect ratio             : 16:9\nFrame rate                       : 25.000 fps\nColor space                      : YUV\nChroma subsampling               : 4:2:0\nBit depth                        : 8 bits\nScan type                        : Progressive\nBits/(Pixel*Frame)               : 0.190\nStream size                      : 619 MiB (89%)\nWriting library                  : XviD 62\n\nAudio\nID                               : 1\nFormat                           : MPEG Audio\nFormat version                   : Version 1\nFormat profile                   : Layer 3\nMode                             : Joint stereo\nMode extension                   : MS Stereo\nCodec ID                         : 55\nCodec ID/Hint                    : MP3\nDuration                         : 1h 22mn\nBit rate mode                    : Variable\nBit rate                         : 128 Kbps\nChannel(s)                       : 2 channels\nSampling rate                    : 48.0 KHz\nStream size                      : 72.6 MiB (10%)\nAlignment                        : Aligned on interleaves\nInterleave, duration             : 24 ms (0.60 video frame)\nInterleave, preload duration     : 150 ms\nWriting library                  : LAME3.98r\nEncoding settings                : -m j -V 4 -q 2 -lowpass 17 --abr 128\n\n","torrent":{"xt":"urn:btih:f27c0210dc003edde36bf8460e4ebb856b4bb0de","amp;dn":"Hoodwinked.Too.Hood.Vs.Evil.2011.3D.DVDRip.XviD-EXViD.sharedump.","amp;tr":["udp%3A%2F%2Ftracker.openbittorrent.com%3A80","udp%3A%2F%2Fopen.demonii.com%3A1337","udp%3A%2F%2Ftracker.coppersurfer.tk%3A6969","udp%3A%2F%2Fexodus.desync.com%3A6969"],"infoHash":"f27c0210dc003edde36bf8460e4ebb856b4bb0de","infoHashBuffer":{"type":"Buffer","data":[242,124,2,16,220,0,62,221,227,107,248,70,14,78,187,133,107,75,176,222]},"announce":[],"urlList":[]}}